<?xml version="1.0" encoding="utf-8"?>
<!DOCTYPE svg PUBLIC "-//W3C//DTD SVG 1.1//EN" "http://www.w3.org/Graphics/SVG/1.1/DTD/svg11.dtd">
<svg xmlns="http://www.w3.org/2000/svg" xmlns:xlink="http://www.w3.org/1999/xlink" version="1.1" baseProfile="full" width="160" height="160" viewBox="0 0 160.00 160.00" enable-background="new 0 0 160.00 160.00" xml:space="preserve">
	<path class="svh-gheist-pixel" d="M 30,20L 40,20L 40,10L 50,10L 60,10L 70,10L 80,10L 90,10.0001L 99.9999,10.0001L 110,10.0001L 120,10.0001L 120,20.0001L 130,20.0001L 130,30.0001L 140,30.0001L 140,40.0001L 140,50.0001L 150,50.0001L 150,60.0001L 150,70.0001L 140,70.0001L 140,60.0001L 140,50.0001L 130,50.0001L 130,40.0001L 130,30.0001L 120,30.0001L 120,20.0001L 110,20.0001L 99.9999,20.0001L 90,20.0001L 80,20L 70,20L 60,20L 50,20L 40,20L 40,30L 30,30L 30,40L 30,50L 20,50L 20,60L 20,70L 20,80L 20,90L 20,100L 20,110L 20,120L 20,130L 20,140L 30,140L 40,140L 40,130L 50,130L 60,130L 70,130L 70,140L 80,140L 90,140L 90,130L 100,130L 110,130L 120,130L 120,140L 130,140L 140,140L 140,130L 140,120L 140,110L 130,110L 120,110L 110,110L 100,110L 100,100L 110,100L 120,100L 130,100L 140,100L 140,110L 150,110L 150,120L 150,130L 150,140L 140,140L 140,150L 130,150L 120,150L 120,140L 110,140L 100,140L 100,150L 90,150L 80,150L 70,150L 70,140L 60,140L 50,140L 50,150L 40,150L 30,150L 20,150L 20,140L 10,140L 10,130L 10,120L 10,110L 10,100L 10,90L 10,80L 10,70L 10,60L 10,50L 20,50L 20,40L 20,30L 30,30L 30,20 Z M 110,70.0002L 120,70.0002L 120,80.0001L 110,80.0001L 99.9998,80.0001L 99.9998,70.0002L 99.9998,60.0002L 99.9998,50.0002L 110,50.0002L 120,50.0002L 120,60.0002L 110,60.0002L 110,70.0002 Z M 69.9999,70.0002L 79.9999,70.0002L 79.9999,80.0001L 69.9999,80.0001L 59.9999,80.0001L 59.9999,70.0002L 59.9999,60.0002L 59.9999,50.0001L 69.9999,50.0002L 79.9999,50.0002L 79.9999,60.0002L 69.9999,60.0002L 69.9999,70.0002 Z "/>
</svg>
